<?xml version="1.0" encoding="utf-8"?>
<svg width="233" height="33" viewBox="0 0 233 33" fill="none" xmlns="http://www.w3.org/2000/svg">
<path d="M111.484 22.18C112.817 20.5613 113.582 18.4067 113.582 16.2674C113.582 14.6106 113.096 13.1932 112.183 12.1748C111.277 11.1679 110.031 10.6359 108.583 10.6359C107.425 10.6359 106.331 10.8905 105.33 11.392C104.401 11.8594 103.572 12.5282 102.873 13.3756C101.539 14.9906 100.774 17.1489 100.774 19.2997C100.774 20.9565 101.256 22.3738 102.173 23.3922C103.079 24.3992 104.325 24.9312 105.773 24.9312C106.928 24.9312 108.021 24.6766 109.026 24.1712C109.951 23.7038 110.78 23.0312 111.484 22.18ZM105.892 24.3346C104.138 24.3346 103.247 23.0236 103.247 20.4435C103.247 19.0413 103.648 16.7347 104.547 14.7322C105.261 13.1362 106.523 11.2325 108.464 11.2325C110.218 11.2325 111.109 12.5434 111.109 15.1274C111.109 16.5295 110.708 18.8361 109.809 20.8387C109.095 22.4346 107.834 24.3346 105.892 24.3346Z" fill="#231F20"/>
<path d="M125.656 3.60994C125.071 3.15395 124.241 2.91455 123.259 2.91455C121.887 2.91455 120.672 3.43894 119.647 4.47252C118.524 5.6087 117.66 7.33006 117.083 9.59482L116.754 10.9058H113.521L113.33 11.472H116.685L113.697 25.0947C112.81 29.3544 112.087 30.0726 110.807 30.0726C110.371 30.0726 110.089 30.0042 109.89 29.8446C110.219 29.5938 110.547 29.0998 110.547 28.5526C110.547 27.8535 110.089 27.0973 109.083 27.0973C108.216 27.0973 107.589 27.7471 107.589 28.6438C107.589 29.2404 107.857 29.742 108.365 30.0992C108.892 30.4716 109.664 30.6692 110.593 30.6692C111.411 30.6692 112.091 30.54 112.676 30.2778C113.307 29.9928 113.846 29.5444 114.323 28.906C115.302 27.5989 116.066 25.4709 116.8 22.0054L119.032 11.472H122.506L122.69 10.921L122.697 10.9058H119.101L119.793 8.00645C120.186 6.36488 120.653 5.20971 121.214 4.46872C121.723 3.80373 122.311 3.47694 123.015 3.47694C123.385 3.47694 123.84 3.61374 124.027 3.91393C123.767 4.23692 123.488 4.89811 123.488 5.4187C123.488 6.33828 124.073 6.93487 124.983 6.93487C125.923 6.93487 126.508 6.30788 126.508 5.3009C126.504 4.63592 126.202 4.03553 125.656 3.60994Z" fill="#231F20"/>
<path d="M67.16 26.3145C67.16 30.369 68.9945 32.5121 72.4687 32.5121C75.0753 32.5121 77.1927 30.9732 78.9355 27.8078L78.9737 27.7432L78.4463 27.348L78.3966 27.4278C76.9481 29.7496 75.5607 30.8326 74.0319 30.8326C72.0521 30.8326 71.0469 29.4266 71.0469 26.6527V10.8792H78.1711V9.73539H71.0469V1.53516L67.1638 3.31352V9.5986L62.5774 10.2788V10.8792H67.1638V26.3145H67.16Z" fill="#231F20"/>
<path d="M89.1287 32.4667C92.9049 32.4667 95.9472 30.5477 98.4238 26.6034L98.4697 26.5312L97.8925 26.1474L97.8429 26.212C95.7561 28.9289 93.6998 30.7377 90.4473 30.7377C85.7157 30.7377 82.7766 26.9226 82.7766 20.7819V20.7325C82.7766 20.2385 82.7766 19.7673 82.8186 19.2657H98.3359L98.3397 19.1859C98.527 16.317 97.6709 13.7216 95.9357 11.8825C94.2808 10.1269 91.9417 9.19592 89.1746 9.19592C83.4416 9.19592 78.5953 14.6564 78.5953 21.1201C78.5992 27.694 83.0288 32.4667 89.1287 32.4667ZM94.1699 18.4639H82.8798C83.3231 13.0376 85.4902 10.0509 88.9797 10.0509C90.4702 10.0509 91.6589 10.5031 92.5074 11.3961C93.7877 12.7451 94.3457 15.12 94.1699 18.4639Z" fill="#231F20"/>
<path d="M26.6125 14.3333C26.6125 15.5835 27.3502 16.845 28.9936 16.845C30.4765 16.845 31.4741 15.8343 31.4741 14.3333C31.4741 13.3377 30.8435 12.4257 29.8153 11.9241C30.6562 10.902 32.292 10.2978 34.2144 10.2978C37.5128 10.2978 38.862 11.9583 38.862 16.0318V19.2618C38.3728 19.3796 37.7613 19.4974 37.0618 19.638C34.5699 20.132 31.1569 20.8122 28.6611 22.1649C26.624 23.2745 25.592 24.9313 25.592 27.0934C25.592 29.6736 27.4457 32.2727 31.5849 32.2727C34.1953 32.2727 36.6185 30.9732 38.9919 28.2942H39.011C39.0798 30.654 40.3105 31.9763 42.6687 32.2271C43.0127 32.2651 43.3605 32.2803 43.6968 32.2803C45.9518 32.2803 47.6335 31.4709 48.8488 30.7528L48.8565 30.7566C50.6184 31.7939 52.9919 32.4665 54.9029 32.4665C59.3364 32.4665 62.5545 29.4304 62.5545 25.2505C62.5545 21.8951 60.6091 20.0218 55.6099 18.5702C51.1917 17.32 49.6247 16.123 49.6247 13.9951C49.6247 11.6771 51.4746 10.0546 54.1232 10.0546C56.898 10.0546 58.1707 11.2325 60.9263 16.3624L60.9493 16.408H61.4805V9.19958H60.9645L59.7148 10.5372C58.1745 9.70118 56.2711 9.19958 54.6086 9.19958C50.263 9.19958 46.8614 12.2205 46.8614 16.0774C46.8614 19.6912 49.3533 21.0781 53.9512 22.3701C59.0421 23.8369 59.9403 25.1707 59.9403 27.4278C59.9403 29.4418 58.4726 31.6077 55.2469 31.6077C51.5625 31.6077 50.2362 30.0764 47.2742 24.4259L47.2513 24.3803H46.72V28.2828C46.6474 30.0232 46.0588 30.9618 44.9198 31.1555C44.1363 31.2467 43.5554 30.9466 43.1923 30.2626C42.898 29.7078 42.7489 28.9174 42.7489 27.9104V15.8837C42.7489 11.5745 40.0583 9.39338 34.7572 9.39338C30.1861 9.39338 26.6125 11.5631 26.6125 14.3333ZM38.8582 20.113V27.3024C37.9485 28.4728 36.0605 30.3994 33.5303 30.3994C31.069 30.3994 29.716 28.9478 29.716 26.3144C29.716 22.9477 31.0995 21.4999 38.8582 20.113Z" fill="#231F20"/>
<path d="M0.852304 9.39342L0.886702 9.31742C3.6844 3.01334 5.67948 0.987984 9.08869 0.987984H12.903V28.108C12.903 30.3842 11.9858 31.2202 6.84136 31.3684L6.75728 31.3722V31.9802H23.402V31.3722L23.318 31.3684C18.1697 31.2202 17.2563 30.3842 17.2563 28.108V0.987984H21.0706C24.4798 0.987984 26.4749 3.01334 29.2726 9.31362L29.307 9.38962L29.3873 9.35922C29.6128 9.27182 29.8536 9.18822 30.0982 9.11602L30.1631 9.09702L29.8918 0.0874023H0.271361L0 9.09702L0.0649738 9.11602C0.309581 9.19202 0.550367 9.27182 0.775864 9.35922L0.852304 9.39342Z" fill="#231F20"/>
<path d="M157.611 0.721986L157.695 0.718186V0H143.21V0.718186L143.294 0.721986C147.517 0.854983 147.98 1.83156 147.98 3.87212V14.8197H132.883V3.87212C132.883 1.83156 133.349 0.854983 137.615 0.721986L137.699 0.718186V0H123.171V0.718186L123.255 0.721986C127.486 0.862583 128.354 2.08236 128.354 3.87212V28.0396C128.354 29.8788 127.502 31.0454 123.255 31.1898L123.171 31.1936V31.9574H137.699V31.1936L137.615 31.1898C133.33 31.053 132.883 30.1258 132.883 28.0396V15.9483H147.98V28.0358C147.98 30.122 147.536 31.0492 143.294 31.186L143.21 31.1898V31.9536H157.695V31.1898L157.611 31.186C153.365 31.0416 152.513 29.875 152.513 28.0358V3.86832C152.513 2.08236 153.38 0.862583 157.611 0.721986Z" fill="#231F20"/>
<path d="M232.427 26.1474L232.377 26.212C230.29 28.9289 228.234 30.7377 224.981 30.7377C220.25 30.7377 217.311 26.9226 217.311 20.7819V20.7325C217.311 20.2385 217.311 19.7673 217.353 19.2657H232.87L232.874 19.1859C233.061 16.317 232.205 13.7216 230.47 11.8825C228.815 10.1269 226.476 9.19592 223.709 9.19592C217.976 9.19592 213.129 14.6564 213.129 21.1201C213.129 27.6902 217.559 32.4629 223.659 32.4629C227.435 32.4629 230.477 30.5439 232.954 26.5996L233 26.5274L232.427 26.1474ZM223.518 10.0547C225.008 10.0547 226.197 10.5069 227.045 11.3999C228.326 12.7451 228.884 15.1238 228.704 18.4677H217.414C217.861 13.0414 220.024 10.0547 223.518 10.0547Z" fill="#231F20"/>
<path d="M165.893 9.09326C163.065 9.09326 160.245 10.294 158.15 12.3878C155.941 14.5956 154.726 17.5747 154.726 20.778C154.726 27.3557 159.526 32.3184 165.893 32.3184C171.24 32.3184 177.012 27.8307 177.012 20.5842C177.015 14.1396 172.131 9.09326 165.893 9.09326ZM166.088 31.2696C161.716 31.2696 159.587 27.8041 159.587 20.6792C159.587 13.391 161.456 10.1382 165.649 10.1382C170.025 10.1382 172.15 13.5848 172.15 20.6792C172.154 27.9067 170.228 31.2696 166.088 31.2696Z" fill="#231F20"/>
<path d="M211.268 29.3201V15.876C211.268 11.6581 209.155 9.23755 205.47 9.23755C202.409 9.23755 199.451 11.0197 197.326 14.1319C196.829 10.9741 194.826 9.23755 191.658 9.23755C188.413 9.23755 185.756 11.0045 183.547 14.6372V9.38195L175.808 9.58334V10.3357H175.896C178.957 10.3889 179.374 11.5707 179.374 12.7221V29.3201C179.374 30.9047 178.674 31.1251 175.896 31.1745H175.808V31.9307H186.429V31.1745H186.345C183.952 31.1289 183.65 30.9199 183.65 29.3201V16.237C185.13 13.0945 186.987 11.5023 189.177 11.5023C191.952 11.5023 193.19 13.3035 193.19 17.3352V29.3201C193.19 30.8477 192.735 31.1251 190.152 31.1745H190.068V31.9307H201.029V31.1745H200.941C197.983 31.1251 197.463 30.8477 197.463 29.3201V15.5606C198.885 13.0185 200.949 11.4985 202.99 11.4985C205.764 11.4985 207.003 13.2997 207.003 17.3314V29.3163C207.003 30.9161 206.693 31.1213 204.259 31.1707H204.175V31.9269H214.846V31.1707H214.758C211.788 31.1251 211.268 30.8477 211.268 29.3201Z" fill="#231F20"/>
<path d="M231.849 31.1936C231.995 31.1936 232.071 31.1138 232.071 31.0074V30.9998C232.071 30.8744 231.983 30.8098 231.842 30.8098H231.559V31.1898H231.849V31.1936ZM231.272 30.559H231.853C232.029 30.559 232.163 30.6084 232.258 30.6996C232.327 30.7718 232.365 30.8668 232.365 30.9846V30.9922C232.365 31.2012 232.251 31.3342 232.086 31.3912L232.404 31.8548H232.067L231.788 31.4368H231.781H231.559V31.8548H231.272V30.559V30.559ZM232.862 31.2468V31.2392C232.862 30.6426 232.4 30.16 231.781 30.16C231.161 30.16 230.691 30.6502 230.691 31.2468V31.2544C230.691 31.851 231.154 32.3335 231.773 32.3335C232.392 32.3297 232.862 31.8396 232.862 31.2468ZM230.546 31.2506V31.243C230.546 30.578 231.089 30.0232 231.777 30.0232C232.465 30.0232 233 30.5742 233 31.2354V31.243C233 31.908 232.457 32.4627 231.769 32.4627C231.085 32.4665 230.546 31.9156 230.546 31.2506Z" fill="#231F20"/>
</svg>
